
v 159.75 -7.1 
v 157.5 -8.85 
v -157.55 -8.85 
v -159.85 -7.1 
v -161.2 -8.3 
v -158.2 -10.65 
v 158.15 -10.65 
v 161.1 -8.3 
v 159.75 -7.1 
l 1 2 3 4 5 6 7 8 9 1

v 154.6 -0.05 
v 160.9 4.95 
v 160.5 5.7 
v 159.95 6.25 
v 159.75 6.3 
v 156.1 3.45 
v 156.1 3.4 
v 151.7 -0.05 
v 155.25 -2.9 
v 155.65 -2.75 
v 156.3 -1.5 
v 154.6 -0.05 
l 10 11 12 13 14 15 16 17 18 19 20 21 10

v 159.35 -0.75 
v 159.25 -0.6 
v 152.5 -6.1 
v 150.1 -6.1 
v 150.05 5.95 
v 152.5 5.95 
v 155.35 3.6 
v 156.55 4.95 
v 153.15 7.7 
v 148.25 7.7 
v 148.3 -7.9 
v 153.15 -7.9 
v 160.6 -1.8 
l 22 23 24 25 26 27 28 29 30 31 32 33 34 22

v 158 -5.05 
v 164.6 -10.25 
v 177.45 -0.05 
v 164.6 10.1 
v 162.15 8.2 
v 163.55 7 
v 164.6 7.85 
v 174.55 -0.05 
v 164.6 -7.95 
v 159.25 -3.8 
v 158 -5.05 
l 35 36 37 38 39 40 41 42 43 44 45 35

v 167.05 -3.6 
v 159.45 2.55 
v 157.95 1.45 
v 164.15 -3.6 
v 162.15 -5.3 
v 163.7 -6.25 
v 167.05 -3.6 
l 46 47 48 49 50 51 52 46

v -162.2 -5.3 
v -164.25 -3.6 
v -158 1.45 
v -159.35 2.45 
v -159.5 2.55 
v -167.1 -3.6 
v -163.75 -6.25 
v -162.2 -5.3 
l 53 54 55 56 57 58 59 60 53

v -156.35 -1.5 
v -155.9 -2.6 
v -155.35 -2.9 
v -151.75 -0.05 
v -159.7 6.25 
v -159.8 6.3 
v -160.55 5.7 
v -161 4.95 
v -154.65 -0.05 
v -156.35 -1.5 
l 61 62 63 64 65 66 67 68 69 70 61

v -159.3 -0.6 
v -160.65 -1.8 
v -153.2 -7.9 
v -148.4 -7.9 
v -148.35 7.7 
v -153.2 7.7 
v -156.6 4.95 
v -156 4 
v -155.4 3.6 
v -152.55 5.95 
v -150.15 5.95 
v -150.15 -6.1 
v -152.55 -6.1 
v -159.1 -0.7 
v -159.3 -0.6 
l 71 72 73 74 75 76 77 78 79 80 81 82 83 84 85 71

v -164.65 -7.95 
v -174.65 -0.05 
v -164.65 7.85 
v -163.6 7 
v -162.2 8.2 
v -164.65 10.1 
v -177.55 -0.05 
v -164.65 -10.25 
v -158.05 -5.05 
v -159.35 -3.8 
v -164.65 -7.95 
l 86 87 88 89 90 91 92 93 94 95 96 86

v -162.4 1 
v -161.9 1.5 
v -164.25 3.45 
v -157.55 8.7 
v 157.5 8.7 
v 164.15 3.45 
v 161.8 1.5 
v 162.3 1 
v 163.45 0.5 
v 167.05 3.45 
v 158.15 10.5 
v -158.2 10.5 
v -167.1 3.45 
v -163.45 0.45 
v -162.4 1
l 97 98 99 100 101 102 103 104 105 106 107 108 109 110 111 97
